#!OML:ASF F:\VICON\USERDATA\INSTALL\rory3\rory3.ASF
:FULLY-SPECIFIED
:DEGREES
481
root 1.17978 17.4319 24.6051 -0.912921 2.11416 6.59514
lowerback 6.84042 -0.121232 -10.9571
upperback 1.14126 -0.914834 1.61641
thorax -2.44922 -0.365436 7.97746
lowerneck -17.7556 -3.82245 -12.501
upperneck 35.1296 -3.04198 4.63423
head 15.7214 -2.31542 3.61057
rclavicle 9.93923e-015 -2.3059e-014
rhumerus -34.1158 -19.6749 -69.4479
rradius 27.5637
rwrist -9.75746
rhand -10.6345 19.6182
rfingers 7.12502
rthumb 15.3725 -9.79032
lclavicle 9.93923e-015 -2.3059e-014
lhumerus -36.069 8.18311 80.3747
lradius 33.539
lwrist -4.49794
lhand -0.0173723 31.8069
lfingers 7.12502
lthumb 25.5737 60.11
rfemur -30.1683 -9.24795 13.6365
rtibia 67.7123
rfoot -9.46672 -5.04284
rtoes 16.2058
lfemur -5.54454 -1.92898 -30.6484
ltibia 31.2216
lfoot -16.1215 -2.3723
ltoes -0.389839
482
root 1.18346 17.4482 24.7655 -0.695808 2.33408 6.83617
lowerback 6.8473 -0.274892 -11.1779
upperback 1.00691 -1.14418 1.58617
thorax -2.54145 -0.466473 8.09241
lowerneck -17.8492 -3.62053 -12.6981
upperneck 35.3591 -2.82099 5.06981
head 15.8385 -2.19678 3.88652
rclavicle 2.8128e-014 -1.11319e-014
rhumerus -34.5289 -19.6915 -69.312
rradius 27.5199
rwrist -9.91248
rhand -10.715 19.6007
rfingers 7.12502
rthumb 15.295 -9.81375
lclavicle 2.8128e-014 -1.11319e-014
lhumerus -35.9568 7.73391 80.4583
lradius 34.0903
lwrist -4.13342
lhand -0.0364483 31.9861
lfingers 7.12502
lthumb 25.5555 60.2919
rfemur -30.8631 -9.24605 13.4431
rtibia 65.3692
rfoot -9.67405 -5.16332
rtoes 17.5884
lfemur -4.95777 -2.14782 -30.9495
ltibia 30.6984
lfoot -15.9957 -2.37142
ltoes -1.39924
483
root 1.18402 17.4642 24.9289 -0.602575 2.43943 6.65238
lowerback 7.01594 -0.352256 -11.0181
upperback 0.855305 -1.2591 1.71648
thorax -2.772 -0.503995 8.1578
lowerneck -13.1965 -4.1564 -15.5355
upperneck 31.7323 -4.20931 7.29952
head 13.4237 -2.78369 4.94708
rclavicle 4.47266e-015 6.36111e-015
rhumerus -35.201 -19.0288 -69.3636
rradius 27.9821
rwrist -10.8044
rhand -11.2864 18.8171
rfingers 7.12502
rthumb 14.7446 -10.6385
lclavicle 4.47266e-015 6.36111e-015
lhumerus -35.9768 7.24001 80.646
lradius 34.7152
lwrist -3.81388
lhand -0.129736 32.1023
lfingers 7.12502
lthumb 25.4661 60.4209
rfemur -31.3108 -8.89996 13.6974
rtibia 62.755
rfoot -9.93283 -5.43718
rtoes 19.9206
lfemur -4.13774 -2.29322 -30.7608
ltibia 30.0359
lfoot -15.8351 -2.34917
ltoes -1.97669
484
root 1.17522 17.462 25.0869 -0.415484 2.49908 6.36346
lowerback 6.90327 -0.40587 -10.8365
upperback 0.949438 -1.2946 1.85818
thorax -2.6016 -0.537644 8.20488
lowerneck -13.2857 -4.21054 -15.4771
upperneck 31.4831 -4.24447 7.18586
head 13.3377 -2.79584 4.87391
rclavicle -1.55052e-014 2.62396e-014
rhumerus -35.2358 -18.7596 -69.6164
rradius 28.1082
rwrist -11.7362
rhand -12.1083 18.0529
rfingers 7.12502
rthumb 13.9527 -11.459
lclavicle -1.55052e-014 2.62396e-014
lhumerus -35.6544 6.87453 80.7922
lradius 35.5404
lwrist -3.68092
lhand -0.141042 32.52
lfingers 7.12502
lthumb 25.4553 60.8401
rfemur -31.7467 -8.4249 14.1735
rtibia 60.024
rfoot -10.2867 -5.99776
rtoes 21.1115
lfemur -3.28294 -2.3924 -30.3991
ltibia 29.2345
lfoot -15.85 -2.29925
ltoes -3.80913
485
root 1.17069 17.4549 25.2434 -0.126091 2.67747 6.53146
lowerback 6.70698 -0.508437 -10.9821
upperback 0.985996 -1.41912 1.79414
thorax -2.42306 -0.611179 8.22286
lowerneck -13.3925 -4.26743 -15.3969
upperneck 31.389 -4.31983 7.15605
head 13.328 -2.81833 4.83169
rclavicle 1.58034e-014 -2.78299e-014
rhumerus -35.3256 -18.7632 -69.8
rradius 28.121
rwrist -12.1327
rhand -12.5934 17.607
rfingers 7.12502
rthumb 13.4851 -11.9364
lclavicle 1.58034e-014 -2.78299e-014
lhumerus -35.4752 6.61811 80.734
lradius 36.4204
lwrist -3.62256
lhand -0.135607 32.7192
lfingers 7.12502
lthumb 25.4605 61.0386
rfemur -32.2115 -8.266 14.1004
rtibia 57.1928
rfoot -10.634 -6.46697
rtoes 20.4864
lfemur -2.32821 -2.56388 -30.5606
ltibia 28.2918
lfoot -15.8467 -2.22262
ltoes -7.03329
486
root 1.17381 17.4501 25.4078 0.0959246 2.90844 6.98837
lowerback 6.66568 -0.611167 -11.3262
upperback 0.871117 -1.5864 1.62986
thorax -2.47977 -0.683309 8.25647
lowerneck -13.2553 -4.30041 -15.3283
upperneck 31.3917 -4.41136 7.15026
head 13.3099 -2.85382 4.80357
rclavicle 1.32192e-014 -7.95139e-016
rhumerus -35.8417 -18.5919 -69.8376
rradius 28.2835
rwrist -12.4149
rhand -12.795 17.4421
rfingers 7.12502
rthumb 13.2908 -12.1142
lclavicle 1.32192e-014 -7.95139e-016
lhumerus -35.396 6.24868 80.6642
lradius 36.9422
lwrist -3.34389
lhand -0.345486 32.5373
lfingers 7.12502
lthumb 25.2594 60.8852
rfemur -32.4359 -8.2919 13.5914
rtibia 54.2337
rfoot -11.0322 -6.677
rtoes 20.1472
lfemur -1.24012 -2.68496 -31.0582
ltibia 27.1814
lfoot -15.6597 -2.33147
ltoes -8.61259
487
root 1.17765 17.4522 25.5756 0.274243 3.1986 7.34019
lowerback 6.7566 -0.699972 -11.5744
upperback 0.667195 -1.74812 1.53118
thorax -2.70686 -0.737971 8.31136
lowerneck -12.7431 -4.27943 -15.3035
upperneck 31.2736 -4.46726 7.1304
head 13.1553 -2.88208 4.78007
rclavicle -1.69961e-014 -3.97569e-015
rhumerus -36.611 -18.5035 -69.6106
rradius 28.4081
rwrist -12.5625
rhand -12.8227 17.4179
rfingers 7.12502
rthumb 13.2641 -12.1401
lclavicle -1.69961e-014 -3.97569e-015
lhumerus -35.3846 5.81289 80.6963
lradius 37.3149
lwrist -3.12425
lhand -0.517138 32.3309
lfingers 7.12502
lthumb 25.095 60.7019
rfemur -32.4518 -8.29547 13.1433
rtibia 51.0712
rfoot -11.3946 -6.93969
rtoes 19.8702
lfemur -0.119836 -2.73509 -31.414
ltibia 25.9688
lfoot -15.4816 -2.58261
ltoes -9.29038
488
root 1.17291 17.4615 25.7417 0.452858 3.37193 7.42986
lowerback 6.74239 -0.769207 -11.6679
upperback 0.396074 -1.85992 1.55693
thorax -2.95813 -0.763661 8.40698
lowerneck -11.7212 -4.11012 -15.4303
upperneck 31.0336 -4.36399 7.15692
head 12.8247 -2.85586 4.8242
rclavicle 3.47873e-016 -1.11319e-014
rhumerus -37.5195 -18.3832 -69.2353
rradius 28.4972
rwrist -12.5765
rhand -12.8183 17.2147
rfingers 7.12502
rthumb 13.2683 -12.3429
lclavicle 3.47873e-016 -1.11319e-014
lhumerus -35.6553 5.45744 80.7473
lradius 37.8523
lwrist -3.05877
lhand -0.57992 32.122
lfingers 7.12502
lthumb 25.0348 60.5014
rfemur -32.3969 -7.88835 12.9857
rtibia 47.6703
rfoot -11.4315 -7.49168
rtoes 19.931
lfemur 0.922218 -2.72082 -31.4429
ltibia 24.8501
lfoot -15.3886 -2.73828
ltoes -10.399
489
root 1.16285 17.4741 25.9059 0.759222 3.41535 7.46284
lowerback 6.22104 -0.871621 -11.878
upperback 0.803857 -1.91924 1.65244
thorax -2.20674 -0.859066 8.60773
lowerneck -12.8527 -4.16108 -15.1699
upperneck 31.0986 -4.23192 6.90945
head 13.0622 -2.78134 4.69648
rclavicle 4.67144e-015 1.35174e-014
rhumerus -36.821 -18.4134 -69.5132
rradius 28.4106
rwrist -12.7172
rhand -12.9754 16.8262
rfingers 7.12502
rthumb 13.1169 -12.7413
lclavicle 4.67144e-015 1.35174e-014
lhumerus -34.5698 5.5351 80.8385
lradius 38.305
lwrist -2.82234
lhand -0.700182 32.3824
lfingers 7.12502
lthumb 24.9196 60.7778
rfemur -32.3274 -7.17661 12.8905
rtibia 44.0639
rfoot -11.169 -8.24778
rtoes 19.6086
lfemur 1.62116 -2.66685 -31.387
ltibia 23.8326
lfoot -15.2604 -2.88601
ltoes -11.3652
490
root 1.16146 17.4921 26.0681 1.14887 3.62162 7.61511
lowerback 6.02872 -0.998967 -12.0063
upperback 0.783254 -2.07382 1.6457
thorax -2.07963 -0.942686 8.67711
lowerneck -13.0933 -4.13529 -15.1016
upperneck 31.0498 -4.17013 6.90991
head 13.0814 -2.74065 4.69174
rclavicle 1.56046e-014 -9.54166e-015
rhumerus -36.8997 -18.55 -69.3478
rradius 28.1462
rwrist -12.1645
rhand -12.6897 17.0406
rfingers 7.12502
rthumb 13.3923 -12.509
lclavicle 1.56046e-014 -9.54166e-015
lhumerus -34.2779 5.51526 80.8197
lradius 38.7984
lwrist -2.67245
lhand -0.839518 32.7015
lfingers 7.12502
lthumb 24.786 61.1154
rfemur -32.1821 -6.7719 12.5812
rtibia 40.3359
rfoot -11.0666 -8.87216
rtoes 16.7551
lfemur 2.17519 -2.56974 -31.4576
ltibia 22.8342
lfoot -15.0583 -3.3432
ltoes -10.9205
491
root 1.15964 17.503 26.2325 1.46549 3.85956 7.83753
lowerback 6.08345 -1.09722 -12.1245
upperback 0.546924 -2.23533 1.566
thorax -2.32235 -0.994827 8.67603
lowerneck -12.9487 -4.14364 -15.1461
upperneck 31.0464 -4.25106 7.07764
head 13.0638 -2.76333 4.75555
rclavicle -1.63997e-014 -1.66979e-014
rhumerus -37.444 -19.1699 -68.7126
rradius 27.5775
rwrist -10.6385
rhand -11.8372 17.9765
rfingers 7.12502
rthumb 14.2139 -11.5172
lclavicle -1.63997e-014 -1.66979e-014
lhumerus -34.3653 5.33998 80.7323
lradius 39.2143
lwrist -2.58178
lhand -1.07995 32.4591
lfingers 7.12502
lthumb 24.5556 60.9045
rfemur -31.9217 -6.28632 12.0906
rtibia 36.5831
rfoot -11.302 -9.45286
rtoes 14.6116
lfemur 2.93564 -2.40909 -31.5818
ltibia 21.8941
lfoot -14.8077 -3.82254
ltoes -9.99252
